Coordinates
version=1
nRows=27
nColumns=34
inDegrees=no

Units are S.I. units (second, meters, Newtons, ...)
If the header above contains a line with 'inDegrees', this indicates whether rotational values are in degrees (yes) or radians (no).

endheader
time	pelvis_tilt	pelvis_list	pelvis_rotation	pelvis_tx	pelvis_ty	pelvis_tz	hip_flexion_r	hip_adduction_r	hip_rotation_r	knee_angle_r	ankle_angle_r	subtalar_angle_r	mtp_angle_r	hip_flexion_l	hip_adduction_l	hip_rotation_l	knee_angle_l	ankle_angle_l	subtalar_angle_l	mtp_angle_l	lumbar_extension	lumbar_bending	lumbar_rotation	arm_flex_r	arm_add_r	arm_rot_r	elbow_flex_r	pro_sup_r	arm_flex_l	arm_add_l	arm_rot_l	elbow_flex_l	pro_sup_l
1.15	-0.0273452	0.0757525	-0.0729844	1.03028	0.920721	-0.236334	0.483275	-0.0535763	-0.0331544	0.252863	0.197167	0.211825	0.00777892	-0.116373	0.0989598	0.0691084	0.0980326	0.287405	0.00260115	0.00777074	-0.42568	-0.394336	-0.189791	-0.00494152	-0.24299	0.258993	0.709803	2.11143	0.291367	-0.286007	-0.0611211	0.825179	2.14133
1.16	-0.0249646	0.0761103	-0.0689026	1.04047	0.919182	-0.235861	0.470742	-0.0496895	-0.02806	0.194477	0.200223	0.223418	0.00778384	-0.138693	0.0982748	0.0754818	0.0858233	0.291657	0.00838848	0.00777573	-0.427377	-0.389757	-0.189042	-0.00290336	-0.240392	0.253307	0.70681	2.11239	0.283908	-0.288778	-0.0577533	0.822064	2.13939
1.17	-0.022263	0.0766678	-0.0650846	1.05077	0.917558	-0.235382	0.459214	-0.0463918	-0.0218787	0.142479	0.203319	0.229936	0.00778877	-0.16138	0.0976318	0.0816255	0.0738103	0.295523	0.0144126	0.00778072	-0.429244	-0.384999	-0.188138	-0.000716163	-0.238015	0.247515	0.704192	2.11302	0.275827	-0.291281	-0.0553382	0.818239	2.13731
1.18	-0.019312	0.0774121	-0.0616211	1.06118	0.915865	-0.234894	0.44923	-0.0437195	-0.0152809	0.0983871	0.206752	0.231575	0.0077937	-0.184193	0.0970713	0.087451	0.0622627	0.298915	0.0204795	0.00778571	-0.431212	-0.380057	-0.186964	0.00163492	-0.235891	0.241585	0.70198	2.11327	0.267272	-0.293403	-0.0538994	0.81348	2.13527
1.19	-0.0161626	0.0782689	-0.0585551	1.07169	0.914123	-0.234402	0.441093	-0.0416516	-0.00913742	0.063257	0.210765	0.228973	0.00779863	-0.206913	0.0965773	0.0928683	0.0514698	0.301778	0.0263957	0.0077907	-0.433234	-0.374847	-0.185382	0.00412892	-0.234048	0.235424	0.700213	2.11306	0.258405	-0.295022	-0.0534071	0.807558	2.1335
1.2	-0.0128062	0.0790661	-0.0558728	1.08231	0.912362	-0.233914	0.434723	-0.0400505	-0.0042511	0.0374344	0.215393	0.222876	0.00780356	-0.229396	0.0960297	0.0977494	0.0417318	0.304122	0.0320291	0.00779569	-0.435316	-0.369174	-0.183221	0.00669608	-0.232512	0.228867	0.698946	2.1123	0.249395	-0.296006	-0.0537783	0.800271	2.13215
1.21	-0.00915642	0.0795232	-0.0535048	1.09307	0.910617	-0.233436	0.429599	-0.038638	-0.0010837	0.0204716	0.220318	0.213779	0.00780848	-0.251591	0.0951855	0.101894	0.0333644	0.30604	0.0373545	0.00780068	-0.437534	-0.362722	-0.180281	0.00921496	-0.231305	0.221685	0.698243	2.11093	0.240399	-0.296218	-0.05489	0.791464	2.13129
1.22	-0.00507604	0.0792888	-0.0513467	1.10398	0.908926	-0.232977	0.424922	-0.0370348	0.000278605	0.0113817	0.224871	0.201862	0.00781341	-0.273488	0.0937148	0.105004	0.02673	0.30771	0.0424658	0.00780567	-0.440005	-0.355099	-0.176339	0.0115284	-0.230446	0.213622	0.698158	2.1089	0.231549	-0.295525	-0.0566106	0.78105	2.13093
1.23	-0.000407975	0.0779996	-0.0492988	1.11507	0.907318	-0.232541	0.419914	-0.0348363	-1.24375e-05	0.00900909	0.228159	0.187157	0.00781834	-0.295055	0.0912661	0.106685	0.0222611	0.309368	0.0475656	0.00781066	-0.442863	-0.345908	-0.171171	0.0134773	-0.229944	0.204443	0.698713	2.10621	0.22294	-0.293809	-0.058835	0.769017	2.13099
1.24	0.00496381	0.0753538	-0.0472941	1.12636	0.905818	-0.23213	0.414091	-0.0316997	-0.00176921	0.0123432	0.229258	0.16982	0.00782327	-0.316162	0.0875409	0.106471	0.0204729	0.311267	0.0529306	0.00781565	-0.446208	-0.334829	-0.164581	0.0149343	-0.229803	0.193984	0.699862	2.10292	0.214623	-0.290984	-0.0615247	0.755436	2.13133
1.25	0.0110502	0.071169	-0.0453089	1.13783	0.904474	-0.231742	0.407414	-0.0274183	-0.00494395	0.0206828	0.227408	0.150394	0.0078282	-0.336499	0.0823513	0.103892	0.0219465	0.313618	0.0588593	0.00782064	-0.450042	-0.321684	-0.156441	0.0158296	-0.230001	0.182206	0.701478	2.0992	0.206591	-0.287007	-0.0647374	0.740453	2.13179
1.26	0.0177044	0.0654181	-0.0433516	1.14948	0.903299	-0.231374	0.400272	-0.0219587	-0.00970863	0.0336253	0.222182	0.129938	0.00783313	-0.355554	0.0756436	0.09856	0.0272836	0.316521	0.0656131	0.00782563	-0.454227	-0.306474	-0.146716	0.0161656	-0.2305	0.169222	0.703337	2.09526	0.198777	-0.281888	-0.0686404	0.724295	2.13222
1.27	0.0246067	0.0582229	-0.0414389	1.16127	0.902291	-0.231023	0.393316	-0.0154513	-0.0164038	0.0509126	0.213569	0.109961	0.00783806	-0.37263	0.0674793	0.0902599	0.0370396	0.319896	0.0733591	0.00783062	-0.458465	-0.289374	-0.135487	0.0160154	-0.231232	0.155306	0.705133	2.09143	0.191043	-0.275689	-0.0734958	0.707251	2.13242
1.28	0.0313227	0.0497972	-0.0395775	1.17319	0.901439	-0.230681	0.387248	-0.00812816	-0.0253697	0.072214	0.201991	0.0921145	0.00784299	-0.386948	0.0579697	0.0790114	0.0516573	0.323434	0.0821396	0.00783561	-0.462357	-0.270659	-0.122944	0.0155179	-0.232123	0.140868	0.706528	2.08802	0.183196	-0.268523	-0.0796141	0.689668	2.13222
1.29	0.0374218	0.0403444	-0.0377563	1.18522	0.900733	-0.230342	0.382598	-0.000209005	-0.0367044	0.0969746	0.188206	0.0776958	0.00784791	-0.397813	0.0471719	0.0650593	0.0714176	0.326596	0.0919026	0.0078406	-0.46551	-0.250591	-0.109344	0.014857	-0.233107	0.126389	0.707219	2.08532	0.175018	-0.26053	-0.0872768	0.671908	2.13141
1.3	0.0425402	0.0300084	-0.035951	1.19733	0.900166	-0.229996	0.379647	0.00816091	-0.0501757	0.124439	0.173236	0.067394	0.00785284	-0.40468	0.0350519	0.0488509	0.096445	0.32862	0.102497	0.00784559	-0.467597	-0.229359	-0.0949778	0.0142399	-0.234145	0.112361	0.707007	2.08352	0.166287	-0.251869	-0.0966663	0.654327	2.12976
1.31	0.0464033	0.0188658	-0.0341329	1.20952	0.899738	-0.229638	0.378437	0.0169274	-0.0652579	0.153741	0.158269	0.0612572	0.00785777	-0.407159	0.0214993	0.0309987	0.12675	0.328562	0.113653	0.00785058	-0.468365	-0.207072	-0.080147	0.0138715	-0.235226	0.0992457	0.70583	2.08271	0.156809	-0.242714	-0.107815	0.637248	2.12703
1.32	0.0488215	0.00694383	-0.0322751	1.22179	0.899447	-0.229266	0.378823	0.0261174	-0.0812275	0.183986	0.144534	0.0587918	0.0078627	-0.404976	0.00636644	0.0122269	0.162285	0.325355	0.124968	0.00785557	-0.467632	-0.183766	-0.0651462	0.0139253	-0.236371	0.0874249	0.703784	2.08286	0.146436	-0.233246	-0.120587	0.62094	2.12304
1.33	0.049677	-0.00575314	-0.0303557	1.2341	0.899291	-0.228877	0.380533	0.0358195	-0.0972693	0.214282	0.133125	0.0591196	0.00786763	-0.397935	-0.010486	-0.00669242	0.202985	0.317898	0.135896	0.00786056	-0.465264	-0.159445	-0.0502524	0.0145177	-0.23762	0.0771735	0.701115	2.08388	0.135089	-0.223646	-0.134687	0.605593	2.11767
1.34	0.0489105	-0.0192202	-0.0283562	1.24646	0.899265	-0.228476	0.3832	0.0461645	-0.112571	0.243742	0.124846	0.0611451	0.00787255	-0.385887	-0.0291539	-0.0250073	0.24878	0.30515	0.145765	0.00786555	-0.461166	-0.1341	-0.0357138	0.0156892	-0.239024	0.0686385	0.69819	2.08564	0.122771	-0.214097	-0.149701	0.591309	2.11102
1.35	0.0465148	-0.0334337	-0.0262584	1.25885	0.899362	-0.228065	0.386404	0.0573049	-0.126403	0.271478	0.120086	0.063715	0.00787748	-0.368734	-0.0496653	-0.04205	0.299576	0.28625	0.153807	0.00787054	-0.455278	-0.107744	-0.02174	0.0173982	-0.240633	0.0618356	0.69545	2.088	0.10958	-0.204772	-0.165142	0.578096	2.10339
1.36	0.0425368	-0.0483374	-0.0240409	1.27124	0.899569	-0.227649	0.389693	0.0693877	-0.138177	0.296623	0.118789	0.0657589	0.00788241	-0.346449	-0.0719646	-0.0572875	0.355201	0.260624	0.159201	0.00787553	-0.447584	-0.0804309	-0.00849375	0.0195288	-0.242485	0.0566609	0.693354	2.09083	0.0957046	-0.19584	-0.180493	0.565893	2.09532
1.37	0.0370842	-0.0638299	-0.0216757	1.28363	0.899871	-0.227232	0.392616	0.0825172	-0.147499	0.318386	0.120514	0.0664063	0.00788734	-0.319118	-0.0958988	-0.0703499	0.415339	0.22811	0.161139	0.00788052	-0.438135	-0.0522816	0.00391325	0.02191	-0.2446	0.0529185	0.69232	2.09399	0.0814204	-0.18746	-0.195235	0.554594	2.08752
1.38	0.0303333	-0.0797511	-0.0191259	1.296	0.900251	-0.226818	0.394759	0.0967093	-0.154202	0.336139	0.124562	0.0650732	0.00789227	-0.28698	-0.121203	-0.0810346	0.479476	0.18905	0.158888	0.0078855	-0.42706	-0.0235038	0.0154182	0.0243449	-0.246976	0.0503573	0.692675	2.09735	0.0670666	-0.17979	-0.20887	0.544093	2.08078
1.39	0.0225331	-0.0958713	-0.0163443	1.30831	0.900697	-0.22641	0.395771	0.111848	-0.158361	0.349514	0.130149	0.0615153	0.00789719	-0.250452	-0.147489	-0.0892865	0.546867	0.144364	0.151875	0.00789049	-0.414586	0.00559454	0.0259989	0.0266444	-0.249591	0.0487108	0.694617	2.10073	0.0530212	-0.172981	-0.22094	0.534318	2.07588
1.4	0.0140023	-0.111888	-0.0132741	1.32055	0.901197	-0.226014	0.395386	0.12766	-0.160285	0.35846	0.136565	0.0558429	0.00790212	-0.210137	-0.17424	-0.0951615	0.616539	0.0955702	0.139752	0.00789548	-0.401042	0.0346047	0.0356608	0.0286596	-0.252401	0.0477315	0.698201	2.10393	0.0396697	-0.16717	-0.231047	0.525263	2.07339
1.41	0.00511872	-0.127437	-0.00985204	1.33269	0.901748	-0.225637	0.393426	0.143715	-0.160485	0.363263	0.143286	0.0484972	0.00790705	-0.166803	-0.20082	-0.0987848	0.687346	0.0447366	0.122475	0.00790047	-0.386849	0.0630352	0.0444231	0.0303094	-0.255341	0.0472142	0.703342	2.10667	0.0273725	-0.162475	-0.238897	0.517002	2.07366
